# Exported from Wings 3D 2.1.5
mtllib angle-1x1-full.mtl
o Cube1
#8 vertices, 6 faces
v -0.50000000 -0.50000000 -0.50000000
v -0.50000000 -0.50000000 0.50000000
v -0.50000000 0.50000000 -0.50000000
v -0.50000000 0.50000000 0.50000000
v 0.50000000 -0.50000000 -0.50000000
v 0.50000000 -0.50000000 0.50000000
v 0.50000000 0.50000000 -0.50000000
v 0.50000000 0.50000000 0.50000000
vt -2.2204460e-16 1.1102230e-16
vt 0.0000000e+0 0.0000000e+0
vt 0.0000000e+0 6.1232340e-17
vt 0.0000000e+0 1.00000000
vt 0.0000000e+0 1.00000000
vt 5.0986165e-33 1.00000000
vt 6.1232340e-17 0.0000000e+0
vt 1.1102230e-16 1.00000000
vt 2.2204460e-16 1.7225464e-16
vt 4.4408921e-16 0.0000000e+0
vt 4.4408921e-16 1.00000000
vt 1.00000000 0.0000000e+0
vt 1.00000000 1.00000000
vt 1.00000000 1.00000000
vt 1.00000000 0.0000000e+0
vt 1.00000000 1.1102230e-16
vt 1.00000000 1.6653345e-16
vt 1.00000000 1.9428903e-16
vt 1.00000000 1.00000000
vn 0.0000000e+0 -1.00000000 0.0000000e+0
vn 0.0000000e+0 0.0000000e+0 -1.00000000
vn -1.00000000 0.0000000e+0 0.0000000e+0
vn 0.0000000e+0 -1.00000000 0.0000000e+0
vn 0.0000000e+0 0.0000000e+0 1.00000000
vn -1.00000000 0.0000000e+0 0.0000000e+0
vn 0.0000000e+0 1.00000000 0.0000000e+0
vn 0.0000000e+0 0.0000000e+0 -1.00000000
vn -1.00000000 0.0000000e+0 0.0000000e+0
vn 0.0000000e+0 1.00000000 0.0000000e+0
vn 0.0000000e+0 0.0000000e+0 1.00000000
vn -1.00000000 0.0000000e+0 0.0000000e+0
vn 0.0000000e+0 -1.00000000 0.0000000e+0
vn 0.0000000e+0 0.0000000e+0 -1.00000000
vn 1.00000000 0.0000000e+0 0.0000000e+0
vn 0.0000000e+0 -1.00000000 0.0000000e+0
vn 0.0000000e+0 0.0000000e+0 1.00000000
vn 1.00000000 0.0000000e+0 0.0000000e+0
vn 0.0000000e+0 1.00000000 0.0000000e+0
vn 0.0000000e+0 0.0000000e+0 -1.00000000
vn 1.00000000 0.0000000e+0 0.0000000e+0
vn 0.0000000e+0 1.00000000 0.0000000e+0
vn 0.0000000e+0 0.0000000e+0 1.00000000
vn 1.00000000 0.0000000e+0 0.0000000e+0
g Cube1
usemtl Cube1_auv
s 1
f 2/13/6 4/8/12 3/9/9 1/18/3
f 5/15/15 7/19/21 8/11/24 6/10/18
s 2
f 2/14/5 6/5/17 8/1/23 4/12/11
f 3/16/8 7/19/20 5/6/14 1/7/2
s 3
f 1/8/1 5/3/13 6/15/16 2/19/4
f 4/2/10 8/17/22 7/19/19 3/4/7
