# Exported from Wings 3D 2.1.5
mtllib angle-1x3-full.mtl
o Cube1
#8 vertices, 6 faces
v -0.50000000 -0.50000000 -1.50000000
v -0.50000000 -0.50000000 1.50000000
v -0.50000000 0.50000000 -1.50000000
v -0.50000000 0.50000000 1.50000000
v 0.50000000 -0.50000000 -1.50000000
v 0.50000000 -0.50000000 1.50000000
v 0.50000000 0.50000000 -1.50000000
v 0.50000000 0.50000000 1.50000000
vt 1.2500000e-3 3.7500000e-3
vt 1.2500000e-3 3.7500000e-3
vt 1.2500000e-3 0.74625000
vt 1.2500000e-3 0.74625000
vt 1.2500000e-3 3.7500000e-3
vt 1.2500000e-3 0.74625000
vt 1.2500000e-3 3.7500000e-3
vt 0.24875000 3.7500000e-3
vt 0.24875000 3.7500000e-3
vt 0.24875000 3.7500000e-3
vt 0.24875000 3.7500000e-3
vt 0.24875000 0.74625000
vt 0.24875000 0.74625000
vt 0.24875000 0.74625000
vt 0.24875000 0.74625000
vt 0.25125000 0.25125000
vt 0.25125000 0.49875000
vt 0.49875000 0.25125000
vt 0.49875000 0.25125000
vt 0.49875000 0.49875000
vn 0.0000000e+0 -1.00000000 0.0000000e+0
vn 0.0000000e+0 0.0000000e+0 -1.00000000
vn -1.00000000 0.0000000e+0 0.0000000e+0
vn 0.0000000e+0 -1.00000000 0.0000000e+0
vn 0.0000000e+0 0.0000000e+0 1.00000000
vn -1.00000000 0.0000000e+0 0.0000000e+0
vn 0.0000000e+0 1.00000000 0.0000000e+0
vn 0.0000000e+0 0.0000000e+0 -1.00000000
vn -1.00000000 0.0000000e+0 0.0000000e+0
vn 0.0000000e+0 1.00000000 0.0000000e+0
vn 0.0000000e+0 0.0000000e+0 1.00000000
vn -1.00000000 0.0000000e+0 0.0000000e+0
vn 0.0000000e+0 -1.00000000 0.0000000e+0
vn 0.0000000e+0 0.0000000e+0 -1.00000000
vn 1.00000000 0.0000000e+0 0.0000000e+0
vn 0.0000000e+0 -1.00000000 0.0000000e+0
vn 0.0000000e+0 0.0000000e+0 1.00000000
vn 1.00000000 0.0000000e+0 0.0000000e+0
vn 0.0000000e+0 1.00000000 0.0000000e+0
vn 0.0000000e+0 0.0000000e+0 -1.00000000
vn 1.00000000 0.0000000e+0 0.0000000e+0
vn 0.0000000e+0 1.00000000 0.0000000e+0
vn 0.0000000e+0 0.0000000e+0 1.00000000
vn 1.00000000 0.0000000e+0 0.0000000e+0
g Cube1
usemtl Cube1_auv
s 1
f 2/11/6 4/5/12 3/6/9 1/15/3
f 5/3/15 7/14/21 8/8/24 6/1/18
s 2
f 2/16/5 6/18/17 8/20/23 4/17/11
f 3/20/8 7/17/20 5/16/14 1/19/2
s 3
f 1/12/1 5/4/13 6/7/16 2/10/4
f 4/2/10 8/9/22 7/13/19 3/6/7
